<svg width="26" height="20" viewBox="0 0 26 20" fill="none" xmlns="http://www.w3.org/2000/svg">
<path d="M22.0101 1.79317C20.3529 1.0328 18.5759 0.472591 16.7179 0.151737C16.6841 0.145544 16.6503 0.161019 16.6328 0.19197C16.4043 0.598453 16.1511 1.12874 15.9739 1.54555C13.9754 1.24637 11.9873 1.24637 10.0298 1.54555C9.85254 1.11948 9.59019 0.598453 9.36062 0.19197C9.34319 0.162052 9.30939 0.146577 9.27555 0.151737C7.41857 0.471566 5.64152 1.03177 3.98335 1.79317C3.96899 1.79936 3.95669 1.80969 3.94852 1.82309C0.577841 6.85881 -0.345529 11.7708 0.107445 16.6218C0.109495 16.6455 0.122817 16.6682 0.141265 16.6827C2.36514 18.3158 4.51935 19.3073 6.63355 19.9645C6.66739 19.9748 6.70324 19.9624 6.72477 19.9346C7.22489 19.2516 7.6707 18.5315 8.05293 17.7742C8.07549 17.7299 8.05396 17.6772 8.00785 17.6597C7.30073 17.3915 6.6274 17.0644 5.97971 16.693C5.92848 16.6631 5.92437 16.5898 5.9715 16.5547C6.1078 16.4526 6.24414 16.3463 6.37428 16.239C6.39783 16.2194 6.43064 16.2153 6.45833 16.2277C10.7134 18.1704 15.32 18.1704 19.5249 16.2277C19.5525 16.2143 19.5854 16.2184 19.6099 16.238C19.7401 16.3453 19.8764 16.4526 20.0137 16.5547C20.0609 16.5898 20.0578 16.6631 20.0066 16.693C19.3589 17.0716 18.6855 17.3915 17.9774 17.6587C17.9313 17.6762 17.9108 17.7299 17.9333 17.7742C18.3238 18.5304 18.7696 19.2506 19.2605 19.9336C19.281 19.9624 19.3179 19.9748 19.3517 19.9645C21.4761 19.3073 23.6303 18.3158 25.8542 16.6827C25.8737 16.6682 25.886 16.6466 25.8881 16.6228C26.4302 11.0145 24.98 6.14282 22.0439 1.82412C22.0367 1.80969 22.0245 1.79936 22.0101 1.79317ZM8.68836 13.668C7.40729 13.668 6.35173 12.4919 6.35173 11.0475C6.35173 9.60313 7.38682 8.42702 8.68836 8.42702C10.0001 8.42702 11.0455 9.61346 11.025 11.0475C11.025 12.4919 9.98986 13.668 8.68836 13.668ZM17.3276 13.668C16.0466 13.668 14.991 12.4919 14.991 11.0475C14.991 9.60313 16.0261 8.42702 17.3276 8.42702C18.6394 8.42702 19.6847 9.61346 19.6643 11.0475C19.6643 12.4919 18.6394 13.668 17.3276 13.668Z" fill="#5865F2"/>
</svg>
