<?xml version="1.0" encoding="utf-8"?>
<!-- Generator: Adobe Illustrator 25.4.1, SVG Export Plug-In . SVG Version: 6.00 Build 0)  -->
<svg version="1.1" id="Layer_1" xmlns="http://www.w3.org/2000/svg" xmlns:xlink="http://www.w3.org/1999/xlink" x="0px" y="0px"
	 viewBox="0 0 24 24" style="enable-background:new 0 0 24 24;" xml:space="preserve">
<style type="text/css">
	.st0{fill:#FFFFFF;}
</style>
<path class="st0" d="M18.4,20.2c-1.8,1.4-3.9,2.1-6.1,2.1c-2.1,0-4.2-0.7-5.9-1.9c-1.1-0.8-2-1.7-2.8-2.8l1.5,1.1l1-1.4L0,13
	l0.1,7.8l1.7,0l0-2.9c0.9,1.5,2.1,2.9,3.6,3.9c2.1,1.5,4.4,2.3,6.9,2.3c2.6,0,5-0.8,7.1-2.4c2.1-1.6,3.6-3.7,4.6-6.2l-1.6-0.6
	C21.5,17,20.1,18.9,18.4,20.2z"/>
<path class="st0" d="M5.6,4.3C7.4,3,9.5,2.2,11.7,2.2c2.1,0,4.1,0.7,5.9,1.9c1.1,0.8,2,1.7,2.8,2.8l-1.5-1.1l-1,1.4l6.1,4.2
	l-0.1-7.8l-1.7,0l0,2.9c-0.9-1.5-2.1-2.9-3.6-3.9c-2.1-1.5-4.4-2.3-6.9-2.3c-2.6,0-5,0.8-7.1,2.4C2.5,4.6,1,6.7,0,9.2l1.6,0.6
	C2.4,7.6,3.8,5.7,5.6,4.3z"/>
</svg>
