<svg width="16" height="16" viewBox="0 0 16 16" fill="none" xmlns="http://www.w3.org/2000/svg">
<path d="M12.2 10.5999C13.0082 9.46238 13.429 8.09498 13.4 6.69987C13.3968 5.20796 12.8958 3.75979 11.9763 2.5849C11.0568 1.41001 9.7715 0.575619 8.32408 0.213981C6.87666 -0.147658 5.34995 -0.0158533 3.98592 0.588502C2.6219 1.19286 1.49861 2.23519 0.794094 3.55028C0.0895801 4.86537 -0.155849 6.37799 0.0967087 7.84837C0.349266 9.31875 1.08536 10.6628 2.18832 11.6674C3.29128 12.672 4.69799 13.2798 6.1855 13.3944C7.67301 13.5089 9.1562 13.1238 10.4 12.2999L13.7 15.5999L15.4 13.7999L12.2 10.5999ZM6.69999 11.8999C5.33827 11.8737 4.04118 11.3143 3.08752 10.3419C2.13385 9.36955 1.59974 8.06184 1.59999 6.69987C1.59999 5.34727 2.13731 4.05006 3.09375 3.09363C4.05019 2.13719 5.34739 1.59987 6.69999 1.59987C8.06197 1.59962 9.36968 2.13373 10.342 3.08739C11.3144 4.04106 11.8738 5.33815 11.9 6.69987C11.8744 8.07098 11.3183 9.37877 10.3486 10.3485C9.3789 11.3181 8.0711 11.8742 6.69999 11.8999Z" fill="#262626"/>
</svg>
